<svg width="104" height="104" viewBox="0 0 104 104" fill="none" xmlns="http://www.w3.org/2000/svg">
<circle opacity="0.05" cx="52" cy="52" r="43" fill="#2673DD"/>
<circle opacity="0.03" cx="52" cy="52" r="52" fill="#2673DD"/>
<circle opacity="0.08" cx="52" cy="52" r="34" fill="#2673DD"/>
<path d="M48.3226 45.7148H57.9094C57.9091 43.0678 55.7631 40.922 53.116 40.922C50.4688 40.922 48.3229 43.0678 48.3226 45.7148Z" fill="#2673DD"/>
<path d="M54.4234 54.2499C55.193 53.9137 55.7309 53.1458 55.7309 52.2523C55.7309 51.049 54.7554 50.0735 53.552 50.0735C52.3487 50.0735 51.3732 51.049 51.3732 52.2523C51.3732 53.1457 51.9109 53.9135 52.6803 54.2498V57.4815C52.6803 57.9628 53.0705 58.353 53.5519 58.353C54.0332 58.353 54.4234 57.9628 54.4234 57.4815V54.2499Z" fill="#2673DD"/>
<path fill-rule="evenodd" clip-rule="evenodd" d="M52.5837 28.3599C52.9708 27.8803 53.7222 27.8802 54.1109 28.3584C57.8737 32.9868 63.7741 35.2498 70.2785 35.2498C71.5261 35.2498 72.7477 35.1381 73.9338 34.9243L73.9338 53.4617C73.9338 63.5508 67.1962 72.3978 57.4701 75.0799L54.7757 75.8228C53.9192 76.0591 53.0146 76.0591 52.158 75.8228L49.4637 75.0799C39.7376 72.3978 33 63.5508 33 53.4617V34.9244C34.1859 35.1382 35.4072 35.2498 36.6547 35.2498C43.1583 35.2498 48.8486 32.9872 52.5837 28.3599ZM47.0151 45.7148C47.0154 42.3458 49.7466 39.6148 53.1158 39.6148C56.4849 39.6148 59.2161 42.3458 59.2165 45.7148H60.742C62.0656 45.7148 63.1387 46.7879 63.1387 48.1116V57.4805C63.1387 60.1278 60.9926 62.2739 58.3452 62.2739H48.7584C46.1111 62.2739 43.965 60.1278 43.965 57.4805V48.1116C43.965 46.7879 45.038 45.7148 46.3617 45.7148H47.0151Z" fill="#2673DD"/>
</svg>
