<svg xmlns="http://www.w3.org/2000/svg" width="16" height="16" viewBox="0 0 16 16">
  <path fill="#A2A2A4" fill-rule="evenodd" d="M11,2 C11.5522847,2 12,2.44771525 12,3 L12,4 L13.8590287,4 C14.1377152,4 14.3050715,4.03231799 14.4800109,4.12587658 C14.6486266,4.21605325 14.7839468,4.35137343 14.8741234,4.51998914 C14.967682,4.69492849 15,4.86228479 15,5.1409713 L15,13.8590287 C15,14.1377152 14.967682,14.3050715 14.8741234,14.4800109 C14.7839468,14.6486266 14.6486266,14.7839468 14.4800109,14.8741234 C14.3050715,14.967682 14.1377152,15 13.8590287,15 L4.4229139,15 C3.73781908,15 3.39170772,14.9331628 3.03156629,14.7405571 C2.69998761,14.5632269 2.43677315,14.3000124 2.25944293,13.9684337 C2.06683719,13.6082923 2,13.2621809 2,12.5770861 L2,3.5 C2,2.67157288 2.67157288,2 3.5,2 L11,2 Z M3.00029246,4.91475048 L3,12.5770861 C3,13.1112162 3.03672039,13.30137 3.14125613,13.4968348 C3.22538655,13.6541451 3.34585494,13.7746135 3.50316515,13.8587439 C3.69862998,13.9632796 3.88878379,14 4.4229139,14 L13.9560979,13.9991229 C13.9772688,13.998522 13.9889616,13.9975965 13.9962982,13.9962982 L13.9991229,13.9560979 L14,11 L11.5,11 C10.6715729,11 10,10.3284271 10,9.5 C10,8.67157288 10.6715729,8 11.5,8 L14,8 L13.9991229,5.04390208 C13.998522,5.02273117 13.9975965,5.01103841 13.9962982,5.00370177 L13.9560979,5.00087714 L3.5,5 C3.32479157,5 3.15659927,4.96996037 3.00029246,4.91475048 Z M14,9 L11.5,9 C11.2238576,9 11,9.22385763 11,9.5 C11,9.77614237 11.2238576,10 11.5,10 L14,10 L14,9 Z M11,3 L3.5,3 C3.22385763,3 3,3.22385763 3,3.5 C3,3.77614237 3.22385763,4 3.5,4 L11,4 L11,3 Z"/>
</svg>
