<svg width="48" height="48" viewBox="0 0 48 48" fill="none" xmlns="http://www.w3.org/2000/svg">
<g clip-path="url(#clip0)">
<rect width="48" height="48" fill="white"/>
<path d="M14 11.141C15.724 11.141 17.1215 9.7435 17.1215 8.01953C17.1215 9.7435 18.5191 11.141 20.243 11.141C18.5191 11.141 17.1215 12.5386 17.1215 14.2626C17.1215 12.5386 15.724 11.141 14 11.141Z" fill="#FFDA8C"/>
<path d="M28.2825 34.311C30.0064 34.311 31.404 32.9134 31.404 31.1895C31.404 32.9134 32.8015 34.311 34.5255 34.311C32.8015 34.311 31.404 35.7085 31.404 37.4325C31.404 35.7085 30.0064 34.311 28.2825 34.311Z" fill="#FFDA8C"/>
<path d="M18.1684 29.022L17.9739 28.7429L9.86816 33.6133L16.9693 43.8029C17.5468 44.6316 18.6676 44.8711 19.5334 44.3509L22.4557 42.5951C22.982 42.2788 23.0792 41.5569 22.685 41.0861C22.0444 40.3212 21.4549 39.4967 20.9249 38.6145C19.116 35.604 18.2242 32.2981 18.1684 29.022Z" fill="#FF7238"/>
<path d="M12.8072 33.6554L12.8079 33.658C23.2166 30.9639 33.7126 31.4283 43.2721 34.4605C44.1604 34.7423 45.0715 33.6606 44.6638 32.8226C43.3967 30.2182 41.4537 25.5818 39.5656 18.5352C37.6775 11.4887 37.0419 6.50192 36.8371 3.61289C36.7712 2.68333 35.4413 2.20214 34.8129 2.89028C28.0502 10.2959 19.1926 15.9462 8.83134 18.8172L5.12261 19.8127C3.07402 20.3616 1.85843 22.4672 2.40732 24.5157L4.39505 31.934C4.94394 33.9825 7.04948 35.1982 9.09807 34.6493L12.8072 33.6554Z" fill="url(#paint0_linear)"/>
<path d="M12.8072 33.6554L12.8079 33.658C23.2166 30.9639 33.7126 31.4283 43.2721 34.4605C44.1604 34.7423 45.0715 33.6606 44.6638 32.8226C43.3967 30.2182 41.4537 25.5818 39.5656 18.5352C37.6775 11.4887 37.0419 6.50192 36.8371 3.61289C36.7712 2.68333 35.4413 2.20214 34.8129 2.89028C28.0502 10.2959 19.1926 15.9462 8.83134 18.8172L5.12261 19.8127C3.07402 20.3616 1.85843 22.4672 2.40732 24.5157L4.39505 31.934C4.94394 33.9825 7.04948 35.1982 9.09807 34.6493L12.8072 33.6554Z" fill="url(#paint1_linear)"/>
<path d="M43.7694 34.2761C43.0961 34.4544 42.3065 34.2812 41.4183 33.6995C40.5304 33.1179 39.5921 32.1566 38.6656 30.8646C36.8148 28.2835 35.0722 24.4686 33.8973 20.0317C32.7224 15.5947 32.3486 11.4174 32.6795 8.25861C32.8451 6.67742 33.1847 5.37769 33.6684 4.43286C34.1523 3.48782 34.7527 2.94652 35.426 2.76824C36.0993 2.58995 36.8889 2.76315 37.7771 3.34487C38.665 3.92646 39.6033 4.88782 40.5298 6.17983C42.3806 8.76091 44.1232 12.5758 45.2981 17.0127C46.473 21.4497 46.8468 25.627 46.5159 28.7858C46.3503 30.367 46.0107 31.6667 45.527 32.6115C45.0431 33.5566 44.4427 34.0979 43.7694 34.2761Z" fill="url(#paint2_linear)" stroke="url(#paint3_linear)" stroke-width="0.96"/>
<mask id="mask0" style="mask-type:alpha" maskUnits="userSpaceOnUse" x="32" y="2" width="16" height="33">
<ellipse cx="39.5977" cy="18.5241" rx="16.7769" ry="6.37686" transform="rotate(75.1683 39.5977 18.5241)" fill="url(#paint4_linear)"/>
</mask>
<g mask="url(#mask0)">
<path d="M33.0759 12.0824L38.1717 13.225C39.2696 16.4868 41.3788 23.1883 41.0318 23.8993C40.6849 24.6104 39.0137 27.4015 38.0417 29.0139C37.1191 27.2105 35.8598 25.7902 34.4839 20.6556C33.5371 17.1218 33.0814 14.1619 33.0759 12.0824Z" fill="#EF5227"/>
<ellipse cx="39.5979" cy="18.5225" rx="5.52449" ry="2.09984" transform="rotate(75.1683 39.5979 18.5225)" fill="url(#paint5_linear)"/>
</g>
<path d="M1.54622 28.72C0.265917 23.9418 3.10148 19.0305 7.87963 17.7502L10.1819 17.1333C10.694 16.9961 11.2204 17.3 11.3576 17.8121L15.4971 33.2607C15.6343 33.7729 15.3304 34.2993 14.8182 34.4365L12.516 35.0534C7.73787 36.3337 2.82652 33.4981 1.54622 28.72Z" fill="#FF6038"/>
<path d="M1.54622 28.72C0.265917 23.9418 3.10148 19.0305 7.87963 17.7502L10.1819 17.1333C10.694 16.9961 11.2204 17.3 11.3576 17.8121L15.4971 33.2607C15.6343 33.7729 15.3304 34.2993 14.8182 34.4365L12.516 35.0534C7.73787 36.3337 2.82652 33.4981 1.54622 28.72Z" fill="url(#paint6_linear)"/>
</g>
<defs>
<linearGradient id="paint0_linear" x1="26.3034" y1="3.44246" x2="15.5564" y2="43.4707" gradientUnits="userSpaceOnUse">
<stop stop-color="#FFBF37"/>
<stop offset="1" stop-color="#FFAC37"/>
</linearGradient>
<linearGradient id="paint1_linear" x1="18.3125" y1="7.83683" x2="27.0724" y2="40.5292" gradientUnits="userSpaceOnUse">
<stop stop-color="white" stop-opacity="0.71"/>
<stop offset="0.757226" stop-color="white" stop-opacity="0"/>
</linearGradient>
<linearGradient id="paint2_linear" x1="46.3903" y1="20.7157" x2="35.8592" y2="25.4973" gradientUnits="userSpaceOnUse">
<stop stop-color="#FF8450"/>
<stop offset="1" stop-color="#FF5631"/>
</linearGradient>
<linearGradient id="paint3_linear" x1="45.7621" y1="16.8898" x2="33.4333" y2="20.1545" gradientUnits="userSpaceOnUse">
<stop stop-color="white"/>
<stop offset="1" stop-color="#FFEBC2"/>
</linearGradient>
<linearGradient id="paint4_linear" x1="43.4569" y1="12.5193" x2="45.3834" y2="23.9236" gradientUnits="userSpaceOnUse">
<stop stop-color="#FF8450"/>
<stop offset="1" stop-color="#FF5631"/>
</linearGradient>
<linearGradient id="paint5_linear" x1="42.0839" y1="16.4226" x2="40.8171" y2="21.6997" gradientUnits="userSpaceOnUse">
<stop stop-color="#FFE3A9"/>
<stop offset="1" stop-color="#FFDE9D"/>
</linearGradient>
<linearGradient id="paint6_linear" x1="5.87646" y1="17.4093" x2="9.70745" y2="31.7067" gradientUnits="userSpaceOnUse">
<stop stop-color="#FFB538"/>
<stop offset="1" stop-color="#FFB538" stop-opacity="0.21"/>
</linearGradient>
<clipPath id="clip0">
<rect width="48" height="48" fill="white"/>
</clipPath>
</defs>
</svg>
