<svg width="16" height="16" viewBox="0 0 16 16" fill="none" xmlns="http://www.w3.org/2000/svg">
<path fill-rule="evenodd" clip-rule="evenodd" d="M14.5826 5.27561C14.2298 4.44155 13.7239 3.69362 13.0812 3.05098C12.4386 2.40834 11.6907 1.90243 10.8566 1.54966C9.99383 1.18459 9.07636 1 8.13154 1C7.18672 1 6.26925 1.18459 5.40647 1.54966C4.57241 1.90243 3.82448 2.40834 3.18184 3.05098C2.5392 3.69362 2.03329 4.44155 1.68052 5.27561C1.31545 6.13839 1.13086 7.05586 1.13086 8.00068C1.13086 8.9455 1.31545 9.86298 1.68052 10.7258C2.03329 11.5598 2.5392 12.3077 3.18184 12.9504C3.82448 13.593 4.57377 14.0976 5.40647 14.4503C6.26925 14.8154 7.18672 15 8.13154 15C9.07636 15 9.99383 14.8154 10.8566 14.4503C11.6907 14.0989 12.4386 13.593 13.0812 12.9504C13.7239 12.3077 14.2284 11.5585 14.5812 10.7258C14.9463 9.86298 15.1309 8.9455 15.1309 8.00068C15.1309 7.05586 14.9476 6.13839 14.5826 5.27561ZM8.13154 11.9386C7.64888 11.9386 7.25646 11.5461 7.25646 11.0635C7.25646 10.5808 7.64888 10.1884 8.13154 10.1884C8.61421 10.1884 9.00663 10.5808 9.00663 11.0635C9.00663 11.5461 8.61421 11.9386 8.13154 11.9386ZM9.00663 4.93515C9.00663 4.93652 9.00663 4.93652 9.00663 4.93515V4.94746C9.00663 4.99941 9.00116 5.05 8.99159 5.09923L8.56635 8.92363C8.54174 9.14513 8.35442 9.31331 8.13154 9.31331C7.90867 9.31331 7.72135 9.14513 7.69674 8.92499L7.2715 5.1006C7.26193 5.05137 7.25646 5.00078 7.25646 4.94882V4.91464C7.26876 4.44291 7.65572 4.06143 8.13154 4.06143C8.60737 4.06143 8.99432 4.44155 9.00663 4.91464V4.93515Z" fill="#FF4742"/>
</svg>
