<svg width="14" height="14" viewBox="0 0 14 14" fill="none" xmlns="http://www.w3.org/2000/svg">
<path fill-rule="evenodd" clip-rule="evenodd" d="M1.62503 6.87813C1.64066 6.19531 1.78128 5.53281 2.04534 4.90938C2.31566 4.26875 2.70316 3.69531 3.19691 3.2C3.69066 2.70469 4.26566 2.31719 4.90628 2.04688C5.56878 1.76719 6.27191 1.625 6.99847 1.625C7.72503 1.625 8.42816 1.76719 9.08909 2.04688C9.72816 2.31719 10.3032 2.70469 10.7969 3.2C10.9516 3.35469 11.0969 3.51875 11.2313 3.69062L10.2907 4.425C10.2078 4.48906 10.236 4.62031 10.3375 4.64531L13.0828 5.31719C13.161 5.33594 13.2375 5.27656 13.2375 5.19688L13.25 2.37031C13.25 2.26562 13.1297 2.20625 13.0485 2.27188L12.1672 2.96094C10.9657 1.42344 9.09691 0.4375 6.99691 0.4375C3.41722 0.4375 0.504719 3.30625 0.437532 6.87187C0.435969 6.94219 0.492219 7 0.562532 7H1.50003C1.56878 7 1.62347 6.94531 1.62503 6.87813ZM13.4375 7H12.5C12.4313 7 12.3766 7.05469 12.375 7.12187C12.3594 7.80469 12.2188 8.46719 11.9547 9.09062C11.6844 9.73125 11.2969 10.3062 10.8032 10.8C10.3094 11.2937 9.73441 11.6828 9.09378 11.9531C8.43128 12.2328 7.72816 12.375 7.00159 12.375C6.27503 12.375 5.57191 12.2328 4.90941 11.9531C4.27034 11.6828 3.69534 11.2953 3.20159 10.8C3.04691 10.6453 2.90159 10.4812 2.76722 10.3094L3.70784 9.575C3.79066 9.51094 3.76253 9.37969 3.66097 9.35469L0.915657 8.68281C0.837532 8.66406 0.760969 8.72344 0.760969 8.80313L0.750032 11.6313C0.750032 11.7359 0.870344 11.7953 0.951594 11.7297L1.83284 11.0406C3.03441 12.5766 4.90316 13.5625 7.00316 13.5625C10.5844 13.5625 13.4953 10.6922 13.5625 7.12813C13.5641 7.05781 13.5078 7 13.4375 7Z" fill="#2673DD"/>
</svg>
