<svg width="16" height="16" viewBox="0 0 16 16" fill="none" xmlns="http://www.w3.org/2000/svg">
<path fill-rule="evenodd" clip-rule="evenodd" d="M8 1C11.866 1 15 4.13401 15 8C15 11.866 11.866 15 8 15C4.13401 15 1 11.866 1 8C1 4.13401 4.13401 1 8 1ZM8.30164 10.5595C8.14109 10.743 8.00347 10.8347 7.91173 10.8347C7.86586 10.8347 7.84292 10.8347 7.79705 10.8118C7.75118 10.7889 7.75118 10.743 7.75118 10.6742C7.75118 10.6054 7.77411 10.4219 7.84292 10.1696C7.86586 10.0779 7.91173 9.89438 7.98054 9.64209L8.80622 6.6375L8.34751 6.72924C8.18696 6.75218 7.91173 6.79805 7.54476 6.84392C7.15485 6.88979 6.87962 6.91273 6.6732 6.93567V7.21089C6.90255 7.21089 7.06311 7.23383 7.15485 7.2797C7.24659 7.32557 7.29246 7.39438 7.29246 7.532V7.6008C7.29246 7.62374 7.29246 7.64667 7.26953 7.69255L6.62733 10.0779C6.58145 10.2614 6.53558 10.399 6.51265 10.4907C6.46677 10.6742 6.44384 10.8118 6.44384 10.9036C6.44384 11.1558 6.51265 11.3393 6.6732 11.454C6.83375 11.5687 6.9943 11.6375 7.20072 11.6375C7.54476 11.6375 7.86586 11.4999 8.16402 11.2017C8.34751 11.0182 8.5998 10.6742 8.94384 10.1696L8.71448 10.0091C8.5998 10.1925 8.43925 10.376 8.30164 10.5595ZM8.19384 4.3625C7.9761 4.3625 7.80674 4.43508 7.66158 4.58024C7.51642 4.7254 7.44384 4.89476 7.44384 5.1125C7.44384 5.33024 7.51642 5.4996 7.66158 5.64476C7.80674 5.78992 7.9761 5.8625 8.19384 5.8625C8.41158 5.8625 8.58094 5.78992 8.7261 5.64476C8.87126 5.4996 8.94384 5.33024 8.94384 5.1125C8.94384 4.89476 8.87126 4.7254 8.7261 4.58024C8.58094 4.43508 8.41158 4.3625 8.19384 4.3625Z" fill="#2673DD"/>
</svg>
