<svg width="16" height="16" viewBox="0 0 16 16" fill="none" xmlns="http://www.w3.org/2000/svg">
<path fill-rule="evenodd" clip-rule="evenodd" d="M13.0139 4.72017C12.3803 4.09461 11.5381 3.74753 10.6395 3.74618H10.63C10.1982 3.74618 9.77714 3.8269 9.37624 3.98565C8.96055 4.15112 8.58656 4.39461 8.26638 4.71076L5.1332 7.80761C4.77132 8.16546 4.57356 8.64303 4.57491 9.1529C4.57625 9.66142 4.7767 10.139 5.13993 10.4982C5.50315 10.8574 5.98477 11.0551 6.49867 11.0565H6.5027C7.01526 11.0565 7.49553 10.8601 7.85606 10.5049L10.6058 7.78743C10.6973 7.6973 10.7471 7.57757 10.7471 7.45111C10.7471 7.32331 10.6973 7.20358 10.6058 7.11479C10.5157 7.02465 10.3946 6.97622 10.2668 6.97622C10.139 6.97622 10.0179 7.026 9.92781 7.11479L7.17804 9.83227C6.99912 10.0098 6.75831 10.1067 6.50136 10.1067H6.50001C6.24037 10.1054 5.99688 10.0058 5.81661 9.82689C5.63499 9.64662 5.5341 9.40716 5.5341 9.15155C5.53275 8.89729 5.63096 8.65918 5.81123 8.4816L8.9444 5.3834C9.39104 4.9408 9.99104 4.6973 10.6314 4.6973H10.6381C11.2812 4.69865 11.8852 4.94618 12.3386 5.39282C12.7906 5.8408 13.0408 6.43676 13.0422 7.07174C13.0435 7.70671 12.7973 8.30133 12.3493 8.74393L9.02512 12.0332C8.36055 12.687 7.47266 13.0475 6.52557 13.0475H6.51616C5.56504 13.0448 4.67177 12.6789 4.00181 12.017C3.33186 11.3551 2.96191 10.4726 2.96056 9.53227C2.95787 8.59191 3.32379 7.71209 3.98836 7.05559L8.27983 2.81255C8.37131 2.72242 8.42108 2.60269 8.42108 2.47623C8.42108 2.34843 8.37131 2.2287 8.27983 2.13991C8.18835 2.04978 8.06727 2 7.93947 2C7.81167 2 7.69059 2.04978 7.60046 2.13856L3.30899 6.38295C2.88119 6.80537 2.55025 7.30178 2.32424 7.85604C2.10765 8.39146 1.99868 8.95649 2.00001 9.53496C2.00137 10.1148 2.11303 10.6798 2.33366 11.2139C2.56101 11.7681 2.8933 12.2646 3.32379 12.6897C3.75159 13.1134 4.25473 13.443 4.81571 13.669C5.35383 13.8856 5.92558 13.9959 6.51347 13.9986H6.52557C7.10943 13.9986 7.6758 13.891 8.21122 13.6771C8.77086 13.4551 9.27265 13.1282 9.70045 12.7045L13.0247 9.41657C13.3435 9.10043 13.591 8.73182 13.7578 8.31882C13.9193 7.91927 14.0013 7.49954 14 7.0677C13.996 6.17981 13.6462 5.34573 13.0139 4.72017Z" fill="#333333"/>
</svg>
